<svg xmlns="http://www.w3.org/2000/svg" xmlns:xlink="http://www.w3.org/1999/xlink" width="155" height="152" viewBox="0 0 155 152">
  <defs>
    <clipPath id="clip-path">
      <rect id="Rectangle_103" data-name="Rectangle 103" width="148" height="146" rx="57" transform="translate(26 53.124)" fill="#fff" stroke="#007e4e" stroke-width="11"/>
    </clipPath>
  </defs>
  <g id="Group_155" data-name="Group 155" transform="translate(-2834 -160)">
    <g id="Group_90" data-name="Group 90" transform="translate(-1147 -1214)" style="isolation: isolate">
      <rect id="Rectangle_18" data-name="Rectangle 18" width="146" height="144" rx="57" transform="translate(3990 1382)" fill="#fff"/>
      <g id="Mask_Group_6" data-name="Mask Group 6" transform="translate(3955 1320.876)" opacity="0.66" clip-path="url(#clip-path)">
        <g id="money_1_" data-name="money (1)" transform="translate(74.434 113.053)">
          <path id="Path_151" data-name="Path 151" d="M0,396.649V378.308L48.461,367.93l48.461,10.377v18.342l-48.461,9.17Zm0,0" transform="translate(0 -329.008)" fill="#59c230"/>
          <path id="Path_152" data-name="Path 152" d="M0,396.649V378.308L48.461,367.93l48.461,10.377v18.342l-48.461,9.17Zm0,0" transform="translate(0 -311.643)" fill="#59c230"/>
          <path id="Path_153" data-name="Path 153" d="M0,319.879H96.922v21.588H0Zm0,0" transform="translate(0 -289.447)" fill="#9bd981"/>
          <path id="Path_154" data-name="Path 154" d="M0,319.879H96.922v15.436H0Zm0,0" transform="translate(0 -260.891)" fill="#9bd981"/>
          <path id="Path_155" data-name="Path 155" d="M0,455.852v13.595c0,4.62,1.943,8.364,4.34,8.364H92.583c2.4,0,4.34-3.744,4.34-8.364V455.852Zm0,0" transform="translate(0 -374.498)" fill="#9bd981"/>
          <path id="Path_156" data-name="Path 156" d="M14.761,392.441,0,394.159V407.45l14.761,1.518Zm0,0" transform="translate(0 -342.21)" fill="#489f24"/>
          <path id="Path_157" data-name="Path 157" d="M14.761,392.441,0,394.159V407.45l14.761,1.518Zm0,0" transform="translate(0 -324.845)" fill="#489f24"/>
          <path id="Path_158" data-name="Path 158" d="M0,319.879H14.761v21.588H0Zm0,0" transform="translate(0 -289.447)" fill="#59c230"/>
          <path id="Path_159" data-name="Path 159" d="M0,319.879H14.761v15.436H0Zm0,0" transform="translate(0 -260.891)" fill="#59c230"/>
          <path id="Path_160" data-name="Path 160" d="M92.119,0H4.8C2.151,0,0,1.058,0,2.363V31.928c0,1.3,2.15,2.363,4.8,2.363H92.12c2.652,0,4.8-1.058,4.8-2.363V2.363c0-1.3-2.151-2.363-4.8-2.363Zm0,0" transform="translate(0)" fill="#59c230"/>
          <path id="Path_161" data-name="Path 161" d="M8.359,31.928V2.363c0-1.3,2.866-2.363,6.4-2.363H6.4C2.866,0,0,1.058,0,2.363V31.928c0,1.3,2.866,2.363,6.4,2.363h8.359C11.225,34.291,8.359,33.233,8.359,31.928Zm0,0" transform="translate(0 0)" fill="#489f24"/>
          <path id="Path_162" data-name="Path 162" d="M14.761,455.852H0v13.595c0,4.62,2.589,8.364,5.784,8.364h8.977Zm0,0" transform="translate(0 -374.498)" fill="#59c230"/>
        </g>
      </g>
      <g id="Rectangle_11" data-name="Rectangle 11" transform="translate(3990 1382)" fill="none" stroke="#007e4e" stroke-width="11">
        <rect width="146" height="144" rx="57" stroke="none"/>
        <rect x="5.5" y="5.5" width="135" height="133" rx="51.5" fill="none"/>
      </g>
      <text id="annotate" transform="translate(4063 1486)" fill="#333" font-size="18" font-family="ArialRoundedMTBold, Arial Rounded MT"><tspan x="-51.003" y="0">ANNOTATE</tspan></text>
      <circle id="Ellipse_20" data-name="Ellipse 20" cx="23" cy="23" r="23" transform="translate(3989 1374)" fill="#007e4e"/>
      <text id="_2" data-name="2" transform="translate(4005 1406)" fill="#fff" font-size="24" font-family="ArialRoundedMTBold, Arial Rounded MT"><tspan x="0" y="0">2</tspan></text>
    </g>
    <path id="Path_288" data-name="Path 288" d="M-20788.312-17783.469" transform="translate(23729 18001)" fill="none" stroke="#fff" stroke-width="3"/>
    <g id="Group_153" data-name="Group 153" transform="translate(271.213 -139.863) rotate(-9)">
      <g id="tag-black-symbol" transform="translate(2527.42 753.764)">
        <g id="_x36__8_" transform="translate(0 0.236)">
          <g id="Group_136" data-name="Group 136" transform="translate(0)">
            <path id="Subtraction_7" data-name="Subtraction 7" d="M20851.967,17839a5.555,5.555,0,0,1-3.947-1.631l-13.807-13.766a5.548,5.548,0,0,1,0-7.865l2.426-2.414,21.662,21.662-2.389,2.383A5.554,5.554,0,0,1,20851.967,17839Zm8.242-5.912v0l-21.668-21.66,13.426-13.383c.215-.227.406-.436.574-.619l.057-.061c.85-.936,1.238-1.363,2.408-1.363h18.035a2.574,2.574,0,0,1,2.572,2.568v8.678c-2.68-.158-7.424-.9-9.338-1.211a4.925,4.925,0,0,0-.334-.367,5.361,5.361,0,0,0-7.594,0,5.371,5.371,0,1,0,9.154,3.463c2.611.359,6.543.762,8.111.918v6.5c0,1.234-.6,1.818-1.512,2.7l-.437.43-13.455,13.412Zm1.934-20.937a2.666,2.666,0,0,1-1.9-.787,2.694,2.694,0,0,1,0-3.8,2.684,2.684,0,1,1,1.9,4.586Z" transform="translate(-20832.58 -17796)" fill="#003722"/>
          </g>
        </g>
      </g>
      <path id="Path_287" data-name="Path 287" d="M-20804.031-17782.844c9.416,0,38.865,7.844,37.031-6.49-.488-3.68-4.148-6.109-9.342-5.287-4.535.674-6.135,3.584-11.082,4.447-10.7,1.217-10.566-.408-10.566-.408" transform="translate(23361 18551)" fill="none" stroke="#003722" stroke-width="4"/>
    </g>
  </g>
</svg>
