<svg xmlns="http://www.w3.org/2000/svg" width="46.432" height="42.861" viewBox="0 0 46.432 42.861">
  <defs>
    <style>.a{fill:#F7FF00;}</style>
  </defs>
  <path class="a" d="M26.591,22.885a4.6,4.6,0,1,0,4.643,4.6A4.633,4.633,0,0,0,26.591,22.885Zm13.93,4.6A13.93,13.93,0,1,0,19.626,39.432l2.322-4.022A9.065,9.065,0,0,1,17.3,27.482a9.287,9.287,0,0,1,18.573,0,9.065,9.065,0,0,1-4.644,7.929l2.322,4.022A13.834,13.834,0,0,0,40.521,27.482ZM26.591,4.5A23.167,23.167,0,0,0,3.375,27.482,22.9,22.9,0,0,0,14.983,47.361L17.3,43.339A18.271,18.271,0,0,1,8.017,27.482a18.575,18.575,0,0,1,37.147,0,18.132,18.132,0,0,1-9.287,15.857L38.2,47.361A22.9,22.9,0,0,0,49.807,27.482,23.167,23.167,0,0,0,26.591,4.5Z" transform="translate(-3.375 -4.5)" />
</svg>