<svg id="Layer_1" data-name="Layer 1" xmlns="http://www.w3.org/2000/svg" viewBox="0 0 83.32 83.43"><g id="Group_58" data-name="Group 58"><g id="Group_40" data-name="Group 40"><path id="Path_96" data-name="Path 96" d="M74.23,75.61C61.46,86,21.6,86,9.09,75.61c-12.76-10.42-11.46-55,0-66.7s53.67-11.72,65.14,0S87,65.19,74.23,75.61Z" style="fill:#cececd"/></g><path id="Path_97" data-name="Path 97" d="M41.92,57.37C30.46,66.49,17.69,71.18,5.71,71.44c-8.86-15.11-7-51.84,3.38-62.52C18.47-.72,47.91-2.55,64.85,3.44,69,20.64,60.42,42.52,41.92,57.37Z" style="fill:#ddd"/></g><path d="M41.6,40.22a2.09,2.09,0,1,1-2.09,2.09A2.09,2.09,0,0,1,41.6,40.22ZM57.46,26.47a1.27,1.27,0,0,0,.06-1.79,21.61,21.61,0,0,0-31.72,0,1.26,1.26,0,1,0,1.85,1.72,19.12,19.12,0,0,1,28,0,1.27,1.27,0,0,0,.93.41A1.28,1.28,0,0,0,57.46,26.47Zm-4.59,5.22a1.26,1.26,0,0,0,0-1.79,15.5,15.5,0,0,0-22.43,0,1.27,1.27,0,1,0,1.8,1.79,13,13,0,0,1,18.84,0,1.27,1.27,0,0,0,1.79,0ZM37.17,37A6.61,6.61,0,0,1,41.55,35h.1A6.61,6.61,0,0,1,46,37a1.27,1.27,0,0,0,1.78-1.8,9.16,9.16,0,0,0-6.16-2.65h-.1a9.16,9.16,0,0,0-6.16,2.65,1.26,1.26,0,0,0,.89,2.16A1.25,1.25,0,0,0,37.17,37Z" style="fill:#329fc2"/><g style="isolation:isolate"><path d="M30.93,67.52,27.71,55.35h1.65l1.85,8q.3,1.26.51,2.49c.31-1.3.5-2,.55-2.25l2.32-8.22h1.94l1.74,6.16a31.93,31.93,0,0,1,.95,4.31c.15-.77.36-1.65.61-2.65l1.9-7.82h1.62L40,67.52H38.46L35.9,58.25c-.22-.77-.34-1.25-.38-1.43-.13.56-.25,1-.36,1.43l-2.58,9.27Z" style="fill:#333"/><path d="M44.67,57.07V55.35h1.5v1.72Zm0,10.45V58.71h1.5v8.81Z" style="fill:#333"/><path d="M48.8,67.52V59.87H47.48V58.71H48.8v-.94A4,4,0,0,1,49,56.45a1.86,1.86,0,0,1,.75-.94,2.79,2.79,0,0,1,1.53-.36,7.25,7.25,0,0,1,1.39.15l-.22,1.3a4.57,4.57,0,0,0-.88-.08,1.27,1.27,0,0,0-1,.29,1.54,1.54,0,0,0-.29,1.08v.82H52v1.16H50.28v7.65Z" style="fill:#333"/><path d="M53.17,57.07V55.35h1.5v1.72Zm0,10.45V58.71h1.5v8.81Z" style="fill:#333"/></g></svg>