<svg height="512" viewBox="0 0 128 128" width="512" xmlns="http://www.w3.org/2000/svg"><g id="Circle_Grid" data-name="Circle Grid"><circle cx="64" cy="64" fill="#69b0ee" r="64"/></g><g id="icon"><path d="m101.491 39.3v61.7a3.984 3.984 0 0 1 -3.984 3.984h-6.885v-25.584a7.193 7.193 0 0 0 -7.193-7.193h-38.858a7.193 7.193 0 0 0 -7.193 7.193v25.59h-6.885a3.984 3.984 0 0 1 -3.984-3.984v-74.022a3.984 3.984 0 0 1 3.984-3.984h56.493z" fill="#575b6d"/><path d="m37.371 75.805.007 29.195h53.244v-29.195a3.6 3.6 0 0 0 -3.6-3.6h-46.055a3.6 3.6 0 0 0 -3.596 3.6z" fill="#dbd8dd"/><path d="m37.371 23v18.908a3.6 3.6 0 0 0 3.6 3.6h38.815a3.6 3.6 0 0 0 3.6-3.6v-18.908z" fill="#dbd8dd"/><g fill="#bbbbcd"><path d="m72.989 27.28h5.413v12.992h-5.413z"/><path d="m42.513 77.317h42.971v2.36h-42.971z"/><path d="m42.513 84.055h42.971v2.36h-42.971z"/><path d="m42.513 90.793h42.971v2.36h-42.971z"/><path d="m42.513 97.53h42.971v2.36h-42.971z"/></g></g></svg>