<svg xmlns="http://www.w3.org/2000/svg" xmlns:xlink="http://www.w3.org/1999/xlink" width="154" height="152" viewBox="0 0 154 152">
  <defs>
    <clipPath id="clip-path">
      <rect id="Rectangle_104" data-name="Rectangle 104" width="148" height="146" rx="57" transform="translate(26 53.124)" fill="#fff" stroke="#007e4e" stroke-width="11"/>
    </clipPath>
  </defs>
  <g id="Group_156" data-name="Group 156" transform="translate(-2673 -322)">
    <g id="Group_89" data-name="Group 89" transform="translate(-1309 -1052)" style="isolation: isolate">
      <rect id="Rectangle_18" data-name="Rectangle 18" width="146" height="144" rx="57" transform="translate(3990 1382)" fill="#fff"/>
      <g id="Mask_Group_7" data-name="Mask Group 7" transform="translate(3956 1320.876)" opacity="0.66" clip-path="url(#clip-path)">
        <g id="money_1_" data-name="money (1)" transform="translate(74.434 113.053)">
          <path id="Path_163" data-name="Path 163" d="M0,396.649V378.308L48.461,367.93l48.461,10.377v18.342l-48.461,9.17Zm0,0" transform="translate(0 -329.008)" fill="#59c230"/>
          <path id="Path_164" data-name="Path 164" d="M0,396.649V378.308L48.461,367.93l48.461,10.377v18.342l-48.461,9.17Zm0,0" transform="translate(0 -311.643)" fill="#59c230"/>
          <path id="Path_165" data-name="Path 165" d="M0,319.879H96.922v21.588H0Zm0,0" transform="translate(0 -289.447)" fill="#9bd981"/>
          <path id="Path_166" data-name="Path 166" d="M0,319.879H96.922v15.436H0Zm0,0" transform="translate(0 -260.891)" fill="#9bd981"/>
          <path id="Path_167" data-name="Path 167" d="M0,455.852v13.595c0,4.62,1.943,8.364,4.34,8.364H92.583c2.4,0,4.34-3.744,4.34-8.364V455.852Zm0,0" transform="translate(0 -374.498)" fill="#9bd981"/>
          <path id="Path_168" data-name="Path 168" d="M14.761,392.441,0,394.159V407.45l14.761,1.518Zm0,0" transform="translate(0 -342.21)" fill="#489f24"/>
          <path id="Path_169" data-name="Path 169" d="M14.761,392.441,0,394.159V407.45l14.761,1.518Zm0,0" transform="translate(0 -324.845)" fill="#489f24"/>
          <path id="Path_170" data-name="Path 170" d="M0,319.879H14.761v21.588H0Zm0,0" transform="translate(0 -289.447)" fill="#59c230"/>
          <path id="Path_171" data-name="Path 171" d="M0,319.879H14.761v15.436H0Zm0,0" transform="translate(0 -260.891)" fill="#59c230"/>
          <path id="Path_172" data-name="Path 172" d="M92.119,0H4.8C2.151,0,0,1.058,0,2.363V31.928c0,1.3,2.15,2.363,4.8,2.363H92.12c2.652,0,4.8-1.058,4.8-2.363V2.363c0-1.3-2.151-2.363-4.8-2.363Zm0,0" transform="translate(0)" fill="#59c230"/>
          <path id="Path_173" data-name="Path 173" d="M8.359,31.928V2.363c0-1.3,2.866-2.363,6.4-2.363H6.4C2.866,0,0,1.058,0,2.363V31.928c0,1.3,2.866,2.363,6.4,2.363h8.359C11.225,34.291,8.359,33.233,8.359,31.928Zm0,0" transform="translate(0 0)" fill="#489f24"/>
          <path id="Path_174" data-name="Path 174" d="M14.761,455.852H0v13.595c0,4.62,2.589,8.364,5.784,8.364h8.977Zm0,0" transform="translate(0 -374.498)" fill="#59c230"/>
        </g>
      </g>
      <g id="Rectangle_11" data-name="Rectangle 11" transform="translate(3990 1382)" fill="none" stroke="#007e4e" stroke-width="11">
        <rect width="146" height="144" rx="57" stroke="none"/>
        <rect x="5.5" y="5.5" width="135" height="133" rx="51.5" fill="none"/>
      </g>
      <text id="train" transform="translate(4063 1486)" fill="#333" font-size="18" font-family="ArialRoundedMTBold, Arial Rounded MT"><tspan x="-28.226" y="0">TRAIN</tspan></text>
      <circle id="Ellipse_20" data-name="Ellipse 20" cx="23" cy="23" r="23" transform="translate(3989 1374)" fill="#007e4e"/>
      <text id="_3" data-name="3" transform="translate(4005 1406)" fill="#fff" font-size="24" font-family="ArialRoundedMTBold, Arial Rounded MT"><tspan x="0" y="0">3</tspan></text>
    </g>
    <g id="brain" transform="translate(2729.186 360.152)">
      <path id="Path_277" data-name="Path 277" d="M34.032,118.879h-.044a6.986,6.986,0,0,0-5.113,2.222l-.309-2.575a6.066,6.066,0,0,1-3.036.27l.655,5.449a6.994,6.994,0,0,0-3.628,7.62l-3.191-.432a1.529,1.529,0,0,1-1.319-1.509v-3.115a6.113,6.113,0,0,1-3.046,0v3.115a4.585,4.585,0,0,0,3.957,4.528l1.948.263a6.99,6.99,0,0,0,1.921,9.811,7,7,0,0,0,4.486,9.053,7,7,0,0,0,6.676,4.9h.044a3.965,3.965,0,0,0,3.916-3.978v-8.364a5.175,5.175,0,0,1-7.311-4.717,1.523,1.523,0,1,1,3.046,0,2.132,2.132,0,1,0,4.265,0V122.857A3.965,3.965,0,0,0,34.032,118.879Z" transform="translate(-13.336 -106.632)" fill="#003722"/>
      <circle id="Ellipse_30" data-name="Ellipse 30" cx="3.046" cy="3.046" r="3.046" transform="translate(10.143 3.108)" fill="#003722"/>
      <circle id="Ellipse_32" data-name="Ellipse 32" cx="3.046" cy="3.046" r="3.046" transform="translate(36.036 3.108)" fill="#003722"/>
      <circle id="Ellipse_33" data-name="Ellipse 33" cx="3" cy="3" r="3" transform="translate(45.814 10.847)" fill="#003722"/>
      <path id="Path_278" data-name="Path 278" d="M242.523,88.294A6.082,6.082,0,0,1,241,88.1v7.42h3.046V88.1A6.082,6.082,0,0,1,242.523,88.294Z" transform="translate(-216.388 -79.297)" fill="#003722"/>
      <path id="Path_279" data-name="Path 279" d="M290.9,126.808v3.115a1.528,1.528,0,0,1-1.319,1.509l-3.191.432a7,7,0,0,0-3.628-7.62l.655-5.449a6.065,6.065,0,0,1-3.035-.27l-.31,2.575a6.984,6.984,0,0,0-5.113-2.222h-.044A3.965,3.965,0,0,0,271,122.856v8.364a5.175,5.175,0,0,1,7.311,4.717,1.523,1.523,0,1,1-3.046,0,2.132,2.132,0,1,0-4.265,0V154.5a3.965,3.965,0,0,0,3.916,3.978h.044a7,7,0,0,0,6.676-4.9,7,7,0,0,0,4.486-9.053,6.99,6.99,0,0,0,1.921-9.811l1.948-.263a4.585,4.585,0,0,0,3.957-4.528v-3.115a6.11,6.11,0,0,1-3.046,0Z" transform="translate(-243.341 -106.631)" fill="#003722"/>
      <circle id="Ellipse_34" data-name="Ellipse 34" cx="3.046" cy="3.046" r="3.046" transform="translate(23.035 0.109)" fill="#003722"/>
      <circle id="Ellipse_35" data-name="Ellipse 35" cx="3" cy="3" r="3" transform="translate(45.814 10.848)" fill="#003722"/>
      <circle id="Ellipse_36" data-name="Ellipse 36" cx="3" cy="3" r="3" transform="translate(0.814 10.848)" fill="#003722"/>
    </g>
  </g>
</svg>
